<?xml version="1.0" encoding="UTF-8"?>
<!DOCTYPE svg PUBLIC "-//W3C//DTD SVG 1.1//EN" "http://www.w3.org/Graphics/SVG/1.1/DTD/svg11.dtd">
<svg xmlns="http://www.w3.org/2000/svg" version="1.1" width="618px" height="619px" style="shape-rendering:geometricPrecision; text-rendering:geometricPrecision; image-rendering:optimizeQuality; fill-rule:evenodd; clip-rule:evenodd" xmlns:xlink="http://www.w3.org/1999/xlink">
<g><path style="opacity:0.999" fill="#f1f2f3" d="M 378.5,247.5 C 378.5,251.833 378.5,256.167 378.5,260.5C 376.5,260.5 374.5,260.5 372.5,260.5C 372.784,258.585 372.451,256.919 371.5,255.5C 371.5,254.5 371.5,253.5 371.5,252.5C 371.785,249.171 371.118,246.171 369.5,243.5C 368.276,235.143 364.943,227.81 359.5,221.5C 359.027,220.094 358.027,219.427 356.5,219.5C 352.383,217.629 348.049,216.462 343.5,216C 327.833,215.333 312.167,215.333 296.5,216C 288.76,217.615 284.926,222.448 285,230.5C 284.667,249.833 284.333,269.167 284,288.5C 274.917,289.485 265.751,289.818 256.5,289.5C 256.944,267.788 256.444,246.122 255,224.5C 253.895,221.063 251.728,218.563 248.5,217C 243.344,215.038 238.011,214.205 232.5,214.5C 232.5,212.167 232.5,209.833 232.5,207.5C 281.837,208.813 331.17,208.813 380.5,207.5C 379.802,220.831 379.135,234.165 378.5,247.5 Z"/></g>
<g><path style="opacity:0.431" fill="#95979f" d="M 356.5,219.5 C 358.027,219.427 359.027,220.094 359.5,221.5C 357.973,221.573 356.973,220.906 356.5,219.5 Z"/></g>
<g><path style="opacity:0.743" fill="#a2a5af" d="M 369.5,243.5 C 371.118,246.171 371.785,249.171 371.5,252.5C 370.343,249.727 369.676,246.727 369.5,243.5 Z"/></g>
<g><path style="opacity:0.665" fill="#9296a1" d="M 378.5,247.5 C 379.486,251.97 379.819,256.637 379.5,261.5C 376.833,261.5 374.167,261.5 371.5,261.5C 371.5,259.5 371.5,257.5 371.5,255.5C 372.451,256.919 372.784,258.585 372.5,260.5C 374.5,260.5 376.5,260.5 378.5,260.5C 378.5,256.167 378.5,251.833 378.5,247.5 Z"/></g>
<g><path style="opacity:0.129" fill="#70778b" d="M 331.5,270.5 C 333.607,269.532 335.941,269.198 338.5,269.5C 338.802,272.059 338.468,274.393 337.5,276.5C 337.5,274.5 337.5,272.5 337.5,270.5C 335.5,270.5 333.5,270.5 331.5,270.5 Z"/></g>
<g><path style="opacity:0.994" fill="#e9ecee" d="M 331.5,270.5 C 333.5,270.5 335.5,270.5 337.5,270.5C 337.5,272.5 337.5,274.5 337.5,276.5C 337.666,280.514 337.499,284.514 337,288.5C 334.291,289.197 331.624,289.53 329,289.5C 328.78,282.922 329.613,276.589 331.5,270.5 Z"/></g>
<g><path style="opacity:0.486" fill="#9091a0" d="M 249.5,306.5 C 247.901,306.232 246.568,306.566 245.5,307.5C 244.957,307.44 244.624,307.107 244.5,306.5C 246.299,305.212 247.965,305.212 249.5,306.5 Z"/></g>
<g><path style="opacity:0.942" fill="#b4bac4" d="M 288.5,314.5 C 288.762,313.022 288.429,311.689 287.5,310.5C 286.943,312.332 285.943,313.665 284.5,314.5C 286.151,311.432 285.485,309.098 282.5,307.5C 282.637,306.22 280.303,305.887 275.5,306.5C 275.5,313.5 275.5,320.5 275.5,327.5C 274.508,320.352 274.175,313.019 274.5,305.5C 279.297,305.121 283.964,305.621 288.5,307C 291.124,309.623 291.124,312.123 288.5,314.5 Z"/></g>
<g><path style="opacity:0.1" fill="#63686e" d="M 359.5,307.5 C 360.167,309.5 360.833,311.5 361.5,313.5C 361.44,314.043 361.107,314.376 360.5,314.5C 359.526,312.257 359.192,309.924 359.5,307.5 Z"/></g>
<g><path style="opacity:1" fill="#bfc6d0" d="M 363.5,314.5 C 362.833,314.167 362.167,313.833 361.5,313.5C 364.129,310.369 366.962,307.369 370,304.5C 371.23,305.275 371.563,306.275 371,307.5C 369.264,310.739 366.764,313.073 363.5,314.5 Z"/></g>
<g><path style="opacity:1" fill="#f7fcfd" d="M 316.5,326.5 C 312.03,327.486 307.363,327.819 302.5,327.5C 302.17,320.468 302.503,313.468 303.5,306.5C 304.497,313.134 304.83,319.8 304.5,326.5C 308.5,326.5 312.5,326.5 316.5,326.5 Z"/></g>
<g><path style="opacity:0.39" fill="#a3a6b5" d="M 234.5,307.5 C 230.03,306.514 225.363,306.181 220.5,306.5C 220.5,313.5 220.5,320.5 220.5,327.5C 219.508,320.352 219.175,313.019 219.5,305.5C 224.875,305.172 230.208,305.505 235.5,306.5C 235.376,307.107 235.043,307.44 234.5,307.5 Z"/></g>
<g><path style="opacity:0.357" fill="#a8adb9" d="M 316.5,326.5 C 312.5,326.5 308.5,326.5 304.5,326.5C 304.83,319.8 304.497,313.134 303.5,306.5C 302.503,313.468 302.17,320.468 302.5,327.5C 301.508,320.352 301.175,313.019 301.5,305.5C 302.833,305.5 304.167,305.5 305.5,305.5C 305.5,312.167 305.5,318.833 305.5,325.5C 309.371,325.185 313.038,325.518 316.5,326.5 Z"/></g>
<g><path style="opacity:1" fill="#e2e6ea" d="M 337.5,306.5 C 340.577,313.208 343.577,320.041 346.5,327C 344.866,327.494 343.199,327.66 341.5,327.5C 341.528,325.418 340.861,323.584 339.5,322C 336.854,321.503 334.187,321.336 331.5,321.5C 331.328,320.508 331.662,319.842 332.5,319.5C 335.082,319.975 337.082,319.308 338.5,317.5C 338.579,314.729 338.079,312.063 337,309.5C 336.282,310.451 335.449,310.617 334.5,310C 335.641,309.259 335.641,308.425 334.5,307.5C 335.325,306.614 336.325,306.281 337.5,306.5 Z"/></g>
<g><path style="opacity:1" fill="#d4d8df" d="M 260.5,321.5 C 260.427,323.027 261.094,324.027 262.5,324.5C 266.412,327.236 265.745,328.07 260.5,327C 258.451,324.407 256.285,321.907 254,319.5C 252.167,322 250.333,324.5 248.5,327C 247.167,327.667 245.833,327.667 244.5,327C 247.219,323.719 249.553,320.219 251.5,316.5C 250.234,312.957 248.234,309.957 245.5,307.5C 246.568,306.566 247.901,306.232 249.5,306.5C 251.47,308.647 253.303,310.98 255,313.5C 257.444,311.444 259.277,308.944 260.5,306C 261.944,305.219 263.277,305.386 264.5,306.5C 262.167,309.833 259.833,313.167 257.5,316.5C 258.26,318.36 259.26,320.027 260.5,321.5 Z"/></g>
<g><path style="opacity:0.888" fill="#e4e9ed" d="M 282.5,307.5 C 281.167,307.5 279.833,307.5 278.5,307.5C 278.5,310.167 278.5,312.833 278.5,315.5C 280.621,315.675 282.621,315.341 284.5,314.5C 285.943,313.665 286.943,312.332 287.5,310.5C 288.429,311.689 288.762,313.022 288.5,314.5C 285.952,316.013 286.285,317.013 289.5,317.5C 291.084,320.906 290.75,324.072 288.5,327C 284.179,327.499 279.846,327.666 275.5,327.5C 275.5,320.5 275.5,313.5 275.5,306.5C 280.303,305.887 282.637,306.22 282.5,307.5 Z M 285.5,318.5 C 286.301,320.042 286.634,321.708 286.5,323.5C 286.389,324.117 286.056,324.617 285.5,325C 283.19,325.497 280.857,325.663 278.5,325.5C 278.5,322.833 278.5,320.167 278.5,317.5C 281.059,317.198 283.393,317.532 285.5,318.5 Z"/></g>
<g><path style="opacity:0.063" fill="#7e818a" d="M 288.5,314.5 C 288.557,315.609 288.89,316.609 289.5,317.5C 286.285,317.013 285.952,316.013 288.5,314.5 Z"/></g>
<g><path style="opacity:0.275" fill="#8c95a6" d="M 397.5,307.5 C 393.03,306.514 388.363,306.181 383.5,306.5C 383.5,313.5 383.5,320.5 383.5,327.5C 382.508,320.352 382.175,313.019 382.5,305.5C 387.875,305.172 393.208,305.505 398.5,306.5C 398.376,307.107 398.043,307.44 397.5,307.5 Z"/></g>
<g><path style="opacity:0.808" fill="#d7dae1" d="M 223.5,307.5 C 223.5,310.167 223.5,312.833 223.5,315.5C 238.167,316.167 238.167,316.833 223.5,317.5C 223.5,320.167 223.5,322.833 223.5,325.5C 222.167,319.5 222.167,313.5 223.5,307.5 Z"/></g>
<g><path style="opacity:1" fill="#e1e6eb" d="M 359.5,307.5 C 359.192,309.924 359.526,312.257 360.5,314.5C 361.107,314.376 361.44,314.043 361.5,313.5C 362.167,313.833 362.833,314.167 363.5,314.5C 363.351,315.552 363.517,316.552 364,317.5C 367.167,320.667 370.333,323.833 373.5,327C 371.833,327.667 370.167,327.667 368.5,327C 365.961,324.63 363.628,322.13 361.5,319.5C 361.217,318.711 360.717,318.044 360,317.5C 359.502,320.817 359.335,324.15 359.5,327.5C 358.5,327.5 357.5,327.5 356.5,327.5C 356.726,320.124 356.392,312.791 355.5,305.5C 357.483,305.157 358.817,305.824 359.5,307.5 Z"/></g>
<g><path style="opacity:1" fill="#f4f7f7" d="M 234.5,307.5 C 230.833,307.5 227.167,307.5 223.5,307.5C 222.167,313.5 222.167,319.5 223.5,325.5C 226.167,326.167 228.833,326.833 231.5,327.5C 228.082,327.704 224.416,327.704 220.5,327.5C 220.5,320.5 220.5,313.5 220.5,306.5C 225.363,306.181 230.03,306.514 234.5,307.5 Z"/></g>
<g><path style="opacity:0.153" fill="#7b8790" d="M 285.5,318.5 C 286.649,318.791 287.316,319.624 287.5,321C 287.472,322.07 287.139,322.903 286.5,323.5C 286.634,321.708 286.301,320.042 285.5,318.5 Z"/></g>
<g><path style="opacity:1" fill="#c9ced6" d="M 337.5,306.5 C 336.325,306.281 335.325,306.614 334.5,307.5C 335.641,308.425 335.641,309.259 334.5,310C 335.449,310.617 336.282,310.451 337,309.5C 338.079,312.063 338.579,314.729 338.5,317.5C 335.546,310.976 333.546,311.643 332.5,319.5C 331.662,319.842 331.328,320.508 331.5,321.5C 330.812,324.057 329.646,326.391 328,328.5C 327.075,327.953 326.242,327.287 325.5,326.5C 328.464,319.579 331.131,312.579 333.5,305.5C 335.099,305.232 336.432,305.566 337.5,306.5 Z"/></g>
<g><path style="opacity:0.714" fill="#cdd3dc" d="M 386.5,315.5 C 390.226,315.177 393.893,315.511 397.5,316.5C 394.634,317.208 391.8,317.875 389,318.5C 388.586,318.043 388.086,317.709 387.5,317.5C 386.52,320.086 386.187,322.753 386.5,325.5C 390.555,325.176 394.555,325.509 398.5,326.5C 398.376,327.107 398.043,327.44 397.5,327.5C 393.702,326.517 389.702,326.183 385.5,326.5C 385.244,322.731 385.577,319.064 386.5,315.5 Z"/></g>
<g><path style="opacity:0.459" fill="#989aaf" d="M 260.5,321.5 C 261.906,321.973 262.573,322.973 262.5,324.5C 261.094,324.027 260.427,323.027 260.5,321.5 Z"/></g>
<g><path style="opacity:0.118" fill="#606a75" d="M 361.5,319.5 C 360.833,322.167 360.167,324.833 359.5,327.5C 359.335,324.15 359.502,320.817 360,317.5C 360.717,318.044 361.217,318.711 361.5,319.5 Z"/></g>
<g><path style="opacity:0.889" fill="#f7f9fb" d="M 397.5,307.5 C 394.15,307.335 390.817,307.502 387.5,308C 386.565,310.381 386.232,312.881 386.5,315.5C 385.577,319.064 385.244,322.731 385.5,326.5C 389.702,326.183 393.702,326.517 397.5,327.5C 392.833,327.5 388.167,327.5 383.5,327.5C 383.5,320.5 383.5,313.5 383.5,306.5C 388.363,306.181 393.03,306.514 397.5,307.5 Z"/></g>
<g><path style="opacity:0.506" fill="#b8becd" d="M 223.5,325.5 C 227.555,325.176 231.555,325.509 235.5,326.5C 234.272,328.176 232.939,328.509 231.5,327.5C 228.833,326.833 226.167,326.167 223.5,325.5 Z"/></g>
<g><path style="opacity:0.999" fill="#f7f8f8" d="M 284.5,392.5 C 284.863,396.7 285.863,400.7 287.5,404.5C 287.372,406.655 287.872,408.655 289,410.5C 290.699,409.594 292.533,409.261 294.5,409.5C 313.563,411.195 332.563,410.695 351.5,408C 361.244,404.59 368.077,398.09 372,388.5C 374.877,378.611 377.044,368.611 378.5,358.5C 380.5,358.5 382.5,358.5 384.5,358.5C 384.5,360.833 384.5,363.167 384.5,365.5C 384.595,380.84 384.929,396.173 385.5,411.5C 385.5,413.167 385.5,414.833 385.5,416.5C 371.5,416.5 357.5,416.5 343.5,416.5C 306.5,416.821 269.5,417.155 232.5,417.5C 232.5,415.5 232.5,413.5 232.5,411.5C 239.135,411.214 245.468,409.714 251.5,407C 254.619,402.705 256.285,397.871 256.5,392.5C 257.496,377.676 257.829,362.676 257.5,347.5C 266.167,347.5 274.833,347.5 283.5,347.5C 283.171,362.676 283.504,377.676 284.5,392.5 Z"/></g>
<g><path style="opacity:1" fill="#eef4f5" d="M 338.5,347.5 C 338.5,349.5 338.5,351.5 338.5,353.5C 335.789,353.815 333.456,353.148 331.5,351.5C 331.5,349.833 331.5,348.167 331.5,346.5C 334.059,346.198 336.393,346.532 338.5,347.5 Z"/></g>
<g><path style="opacity:0.52" fill="#b8bbc4" d="M 284.5,392.5 C 283.504,377.676 283.171,362.676 283.5,347.5C 274.833,347.5 266.167,347.5 257.5,347.5C 257.829,362.676 257.496,377.676 256.5,392.5C 256.5,377.167 256.5,361.833 256.5,346.5C 265.833,346.5 275.167,346.5 284.5,346.5C 284.5,361.833 284.5,377.167 284.5,392.5 Z"/></g>
<g><path style="opacity:0.478" fill="#8c99a5" d="M 338.5,347.5 C 339.468,349.607 339.802,351.941 339.5,354.5C 336.833,354.5 334.167,354.5 331.5,354.5C 331.5,353.5 331.5,352.5 331.5,351.5C 333.456,353.148 335.789,353.815 338.5,353.5C 338.5,351.5 338.5,349.5 338.5,347.5 Z"/></g>
<g><path style="opacity:0.239" fill="#6f7b87" d="M 378.5,358.5 C 380.607,357.532 382.941,357.198 385.5,357.5C 385.806,360.385 385.473,363.052 384.5,365.5C 384.5,363.167 384.5,360.833 384.5,358.5C 382.5,358.5 380.5,358.5 378.5,358.5 Z"/></g>
<g><path style="opacity:1" fill="#bec4c8" d="M 287.5,404.5 C 289.34,406.914 291.673,408.581 294.5,409.5C 292.533,409.261 290.699,409.594 289,410.5C 287.872,408.655 287.372,406.655 287.5,404.5 Z"/></g>
<g><path style="opacity:0.494" fill="#969ca8" d="M 385.5,411.5 C 386.461,413.265 386.795,415.265 386.5,417.5C 371.99,417.829 357.657,417.496 343.5,416.5C 357.5,416.5 371.5,416.5 385.5,416.5C 385.5,414.833 385.5,413.167 385.5,411.5 Z"/></g>
</svg>
